<svg width="427" height="176" viewBox="0 0 427 176" fill="none" xmlns="http://www.w3.org/2000/svg">
<g clip-path="url(#clip0_231_1964)">
<rect width="427" height="176" rx="8" fill="#277666"/>
<path opacity="0.34" d="M203.092 87.5002L210.021 94.4577L223.907 80.5427" stroke="white" stroke-width="4.3125" stroke-linecap="round" stroke-linejoin="round"/>
<path d="M209.906 60.0439C211.889 58.3477 215.138 58.3477 217.151 60.0439L221.693 63.9539C222.556 64.7014 224.166 65.3052 225.316 65.3052H230.203C233.251 65.3052 235.752 67.8064 235.752 70.8539V75.7414C235.752 76.8627 236.356 78.5014 237.103 79.3639L241.013 83.9064C242.709 85.8902 242.709 89.1389 241.013 91.1514L237.103 95.6939C236.356 96.5564 235.752 98.1664 235.752 99.3164V104.204C235.752 107.251 233.251 109.753 230.203 109.753H225.316C224.194 109.753 222.556 110.356 221.693 111.104L217.151 115.014C215.167 116.71 211.918 116.71 209.906 115.014L205.363 111.104C204.501 110.356 202.891 109.753 201.741 109.753H196.767C193.719 109.753 191.218 107.251 191.218 104.204V99.2877C191.218 98.1664 190.614 96.5564 189.896 95.6939L186.014 91.1227C184.347 89.1389 184.347 85.9189 186.014 83.9352L189.896 79.3639C190.614 78.5014 191.218 76.8914 191.218 75.7702V70.8252C191.218 67.7777 193.719 65.2764 196.767 65.2764H201.741C202.862 65.2764 204.501 64.6727 205.363 63.9252L209.906 60.0439Z" stroke="white" stroke-width="4.3125" stroke-linecap="round" stroke-linejoin="round"/>
<path d="M205.567 -48.2998C207.718 -57.8197 221.282 -57.8197 223.433 -48.2998L234.851 2.24609C237.462 13.8057 250.728 19.3003 260.748 12.9727L304.562 -14.6953C312.814 -19.9065 322.406 -10.3139 317.195 -2.06152L289.527 41.752C283.2 51.7723 288.694 65.038 300.254 67.6494L350.8 79.0674C360.32 81.2179 360.32 94.7821 350.8 96.9326L300.254 108.351C288.694 110.962 283.2 124.228 289.527 134.248L317.195 178.062C322.406 186.314 312.814 195.906 304.562 190.695L260.748 163.027C250.728 156.7 237.462 162.194 234.851 173.754L223.433 224.3C221.282 233.82 207.718 233.82 205.567 224.3L194.149 173.754C191.538 162.194 178.272 156.7 168.252 163.027L124.438 190.695C116.186 195.906 106.594 186.314 111.805 178.062L139.473 134.248C145.8 124.228 140.306 110.962 128.746 108.351L78.2002 96.9326C68.6803 94.7821 68.6803 81.2179 78.2002 79.0674L128.746 67.6494C140.306 65.038 145.8 51.7723 139.473 41.752L111.805 -2.06152C106.594 -10.3139 116.186 -19.9065 124.438 -14.6953L168.252 12.9727C178.272 19.3003 191.538 13.8057 194.149 2.24609L205.567 -48.2998Z" stroke="#3DBEA7" stroke-opacity="0.5" stroke-width="8"/>
<path d="M205.864 -154.518C208.74 -162.664 220.26 -162.664 223.136 -154.518L259.024 -52.8428C262.419 -43.225 273.405 -38.6742 282.606 -43.0742L379.879 -89.5918C387.672 -93.3188 395.819 -85.1724 392.092 -77.3789L345.574 19.8936C341.174 29.0949 345.725 40.0807 355.343 43.4756L457.018 79.3643C465.164 82.2398 465.164 93.7602 457.018 96.6357L355.343 132.524C345.725 135.919 341.174 146.905 345.574 156.106L392.092 253.379C395.819 261.172 387.672 269.319 379.879 265.592L282.606 219.074C273.405 214.674 262.419 219.225 259.024 228.843L223.136 330.518C220.26 338.664 208.74 338.664 205.864 330.518L169.976 228.843C166.581 219.225 155.595 214.674 146.394 219.074L49.1201 265.592C41.3267 269.318 33.1812 261.172 36.9082 253.379L83.4258 156.106C87.8258 146.905 83.275 135.919 73.6572 132.524L-28.0176 96.6357C-36.1637 93.7603 -36.1637 82.2398 -28.0176 79.3643L73.6572 43.4756C83.275 40.0807 87.8258 29.0949 83.4258 19.8936L36.9082 -77.3789C33.1812 -85.1724 41.3276 -93.3188 49.1211 -89.5918L146.394 -43.0742C155.595 -38.6742 166.581 -43.225 169.976 -52.8428L205.864 -154.518Z" stroke="#3DBEA7" stroke-opacity="0.25" stroke-width="8"/>
<path d="M206.323 30.8965C208.292 22.1822 220.708 22.1822 222.677 30.8965C225.341 42.689 238.874 48.2948 249.096 41.8398C256.65 37.0695 265.431 45.85 260.66 53.4043C254.205 63.6265 259.811 77.1595 271.604 79.8232C280.318 81.7921 280.318 94.2079 271.604 96.1768C259.811 98.8405 254.205 112.374 260.66 122.596C265.431 130.15 256.65 138.931 249.096 134.16C238.874 127.705 225.341 133.311 222.677 145.104C220.708 153.818 208.292 153.818 206.323 145.104C203.659 133.311 190.126 127.705 179.904 134.16C172.35 138.931 163.569 130.15 168.34 122.596C174.795 112.374 169.189 98.8405 157.396 96.1768C148.682 94.2079 148.682 81.7921 157.396 79.8232C169.189 77.1595 174.795 63.6265 168.34 53.4043C163.569 45.85 172.35 37.0695 179.904 41.8398C190.126 48.2948 203.659 42.689 206.323 30.8965Z" stroke="#3DBEA7" stroke-width="9.12"/>
</g>
<defs>
<clipPath id="clip0_231_1964">
<rect width="427" height="176" rx="8" fill="white"/>
</clipPath>
</defs>
</svg>
