<svg width="37" height="31" viewBox="0 0 37 31" fill="none" xmlns="http://www.w3.org/2000/svg">
<path d="M12.7863 21.2178H18.9889C18.9697 23.7456 16.892 25.7908 14.3278 25.7908H9.324C6.74836 25.7908 4.66103 23.7283 4.66103 21.1814V14.4963C4.66103 11.9513 6.74836 9.88692 9.324 9.88692H10.1915V5.27758H4.66295C2.08731 5.27758 0 7.34001 0 9.88692V25.7888C0 28.3338 2.08731 30.3982 4.66295 30.3982H18.9908C21.5664 30.3982 23.6537 28.3358 23.6537 25.7888V16.6066H12.7863V21.2159V21.2178Z" fill="#054020"/>
<path d="M31.7777 0H17.4499C14.8743 0 12.7869 2.06243 12.7869 4.60934V13.7916H23.6544V9.18229H17.4518C17.471 6.65452 19.5487 4.60934 22.1128 4.60934H27.1167C29.6923 4.60934 31.7796 6.67176 31.7796 9.21867V15.9038C31.7796 18.4488 29.6923 20.5132 27.1167 20.5132H26.2492V25.1225H31.7796C34.3553 25.1225 36.4426 23.0601 36.4426 20.5132V4.61125C36.4426 2.06625 34.3553 0.00191684 31.7796 0.00191684L31.7777 0Z" fill="#054020"/>
</svg>