<svg width="170" height="39" viewBox="0 0 170 39" fill="none" xmlns="http://www.w3.org/2000/svg">
<path d="M56.3972 7.74359L55.005 10.4131C54.6124 10.0645 54.0092 9.71601 53.1915 9.37132C52.3738 9.02662 51.671 8.85427 51.0831 8.85427C49.2428 8.85427 47.7913 9.47856 46.7285 10.7252C45.6637 11.9718 45.1314 13.6436 45.1314 15.7386C45.1314 17.8336 45.6522 19.3234 46.6959 20.5165C47.7396 21.7095 49.1586 22.305 50.9548 22.305C52.1382 22.305 53.113 21.9814 53.879 21.3341V17.6555H51.2861V14.8194H57.1995V23.1993C56.4086 23.8466 55.388 24.3502 54.1413 24.7122C52.8947 25.0741 51.6518 25.2541 50.4186 25.2541C47.7357 25.2541 45.6101 24.3751 44.0379 22.6172C42.4676 20.8592 41.6806 18.5364 41.6806 15.6486C41.6806 12.7608 42.5366 10.4169 44.2486 8.61107C45.9606 6.80525 48.2623 5.9033 51.1597 5.9033C53.2106 5.9033 54.9571 6.51609 56.3972 7.74167V7.74359Z" fill="#054020"/>
<path d="M60.2535 6.15804L63.4458 5.39205V20.7693C63.4458 22.4564 63.9475 23.4598 64.9529 23.7834C64.4588 24.7199 63.6162 25.189 62.4251 25.189C60.9774 25.189 60.2535 24.1837 60.2535 22.1749V6.15804Z" fill="#054020"/>
<path d="M74.5647 23.5689C74.2755 24.0458 73.77 24.4364 73.0519 24.7371C72.3318 25.0396 71.5812 25.1909 70.798 25.1909C69.3253 25.1909 68.1668 24.8232 67.3223 24.086C66.4797 23.3506 66.0584 22.3051 66.0584 20.9512C66.0584 19.3675 66.652 18.1285 67.8412 17.2342C69.0285 16.3399 70.7175 15.8937 72.9044 15.8937C73.2798 15.8937 73.7221 15.9569 74.2334 16.0852C74.2334 14.4767 73.2166 13.6705 71.1809 13.6705C69.9803 13.6705 68.9768 13.8715 68.1668 14.2698L67.4774 11.7919C68.5747 11.2633 69.8826 10.9991 71.3993 10.9991C73.4847 10.9991 75.0147 11.474 75.9837 12.4238C76.9546 13.3736 77.441 15.1718 77.441 17.8202V20.7444C77.441 22.5674 77.8068 23.7126 78.5383 24.1798C78.274 24.6394 77.981 24.9228 77.6574 25.0281C77.3337 25.1354 76.9622 25.189 76.5467 25.189C76.0871 25.189 75.6735 25.0186 75.3077 24.6777C74.942 24.3368 74.6949 23.9673 74.5666 23.567L74.5647 23.5689ZM74.2583 18.4981C73.7125 18.387 73.3047 18.3315 73.0327 18.3315C70.5126 18.3315 69.2526 19.1568 69.2526 20.8095C69.2526 22.035 69.963 22.6478 71.3858 22.6478C73.3008 22.6478 74.2583 21.6904 74.2583 19.7735V18.4962V18.4981Z" fill="#054020"/>
<path d="M79.9516 24.0535L81.0891 21.5123C82.0428 22.2706 83.1209 22.6479 84.3197 22.6479C85.5184 22.6479 86.1848 22.2055 86.1848 21.3189C86.1848 20.7999 85.9972 20.3729 85.6218 20.0416C85.2465 19.7103 84.5188 19.3177 83.4369 18.8658C81.0776 17.8873 79.8999 16.5161 79.8999 14.7524C79.8999 13.569 80.3499 12.6479 81.2538 11.9872C82.1577 11.3266 83.3105 10.9972 84.7161 10.9972C86.1217 10.9972 87.4755 11.317 88.726 11.9547L87.8068 14.4326C87.1079 13.8371 86.137 13.5384 84.8942 13.5384C83.7796 13.5384 83.2205 13.9807 83.2205 14.8673C83.2205 15.2159 83.4043 15.5318 83.7701 15.8133C84.1358 16.0948 84.919 16.4702 86.1197 16.9432C87.3204 17.4162 88.1841 17.9887 88.7126 18.6609C89.2411 19.3331 89.5035 20.1469 89.5035 21.1006C89.5035 22.3702 89.0324 23.3679 88.0922 24.0956C87.1519 24.8233 85.8708 25.1871 84.2546 25.1871C83.343 25.1871 82.6134 25.1124 82.0638 24.9631C81.5142 24.8137 80.8095 24.5092 79.9497 24.0496L79.9516 24.0535Z" fill="#054020"/>
<path d="M90.6936 24.0535L91.831 21.5123C92.7847 22.2706 93.8628 22.6479 95.0616 22.6479C96.2604 22.6479 96.9268 22.2055 96.9268 21.3189C96.9268 20.7999 96.7391 20.3729 96.3638 20.0416C95.9884 19.7103 95.2608 19.3177 94.1788 18.8658C91.8196 17.8873 90.6418 16.5161 90.6418 14.7524C90.6418 13.569 91.0919 12.6479 91.9957 11.9872C92.8996 11.3266 94.0524 10.9972 95.458 10.9972C96.8636 10.9972 98.2175 11.317 99.468 11.9547L98.5488 14.4326C97.8498 13.8371 96.8789 13.5384 95.6361 13.5384C94.5216 13.5384 93.9624 13.9807 93.9624 14.8673C93.9624 15.2159 94.1462 15.5318 94.512 15.8133C94.8778 16.0948 95.661 16.4702 96.8617 16.9432C98.0624 17.4162 98.926 17.9887 99.4545 18.6609C99.9831 19.3331 100.245 20.1469 100.245 21.1006C100.245 22.3702 99.7744 23.3679 98.8341 24.0956C97.8938 24.8233 96.6127 25.1871 94.9965 25.1871C94.085 25.1871 93.3554 25.1124 92.8058 24.9631C92.2562 24.8137 91.5515 24.5092 90.6916 24.0496L90.6936 24.0535Z" fill="#054020"/>
<path d="M102.828 13.8218H101.244V11.2538H102.828V8.46946L106.02 7.29367V11.2538H109.775V13.8218H106.02V19.8118C106.02 20.7923 106.173 21.4836 106.48 21.8877C106.786 22.2917 107.322 22.4947 108.088 22.4947C108.854 22.4947 109.57 22.286 110.235 21.8685V24.8061C109.494 25.0608 108.439 25.1891 107.068 25.1891C105.696 25.1891 104.659 24.8042 103.925 24.0324C103.192 23.2607 102.826 22.1653 102.826 20.7425V13.8199L102.828 13.8218Z" fill="#054020"/>
<path d="M120.202 14.2315C119.632 13.8562 119.006 13.6685 118.326 13.6685C117.585 13.6685 116.926 14.0055 116.351 14.6777C115.777 15.3499 115.49 16.1714 115.49 17.1423V24.9343H112.297V11.2556H115.49V12.508C116.384 11.5027 117.571 11.001 119.053 11.001C120.143 11.001 120.978 11.1676 121.556 11.4988L120.202 14.2315Z" fill="#054020"/>
<path d="M121.702 18.0634C121.702 15.978 122.305 14.2775 123.509 12.9676C124.714 11.6559 126.303 11.001 128.28 11.001C130.357 11.001 131.972 11.631 133.121 12.891C134.27 14.1511 134.844 15.8765 134.844 18.0634C134.844 20.2503 134.258 21.9756 133.088 23.2625C131.918 24.5475 130.315 25.1909 128.28 25.1909C126.244 25.1909 124.586 24.5417 123.433 23.2434C122.278 21.945 121.702 20.2177 121.702 18.0634ZM125.022 18.0634C125.022 21.0775 126.108 22.5846 128.28 22.5846C129.275 22.5846 130.066 22.194 130.649 21.4088C131.231 20.6256 131.524 19.5111 131.524 18.0634C131.524 15.0913 130.442 13.6053 128.28 13.6053C127.284 13.6053 126.491 13.9979 125.905 14.7811C125.317 15.5643 125.024 16.6578 125.024 18.0634H125.022Z" fill="#054020"/>
<path d="M145.942 24.9343V17.0274C145.942 15.8611 145.718 15.009 145.272 14.4728C144.826 13.9366 144.094 13.6685 143.081 13.6685C142.612 13.6685 142.112 13.8006 141.58 14.0649C141.048 14.3292 140.632 14.6566 140.335 15.0473V24.9343H137.143V11.2556H139.443L140.031 12.5329C140.9 11.5103 142.181 11.001 143.876 11.001C145.571 11.001 146.787 11.4893 147.727 12.464C148.667 13.4387 149.138 14.8003 149.138 16.5448V24.9362H145.946L145.942 24.9343Z" fill="#054020"/>
<path d="M152.676 24.9342V13.8734H150.926V11.2556H155.907V24.9342H152.676ZM154.325 5.95494C154.836 5.95494 155.273 6.13686 155.635 6.49879C155.997 6.86072 156.177 7.29734 156.177 7.80863C156.177 8.31993 155.997 8.75654 155.635 9.11847C155.273 9.4804 154.836 9.66233 154.325 9.66233C153.814 9.66233 153.377 9.48232 153.017 9.11847C152.655 8.75654 152.473 8.31993 152.473 7.80863C152.473 7.29734 152.653 6.86072 153.017 6.49879C153.379 6.13686 153.816 5.95494 154.325 5.95494Z" fill="#054020"/>
<path d="M169.896 12.3415L168.529 14.7295C167.78 14.0228 166.775 13.6686 165.515 13.6686C164.255 13.6686 163.349 14.0707 162.648 14.875C161.945 15.6793 161.595 16.7938 161.595 18.2147C161.595 21.0853 162.962 22.5196 165.695 22.5196C166.878 22.5196 167.922 22.127 168.824 21.3438L169.999 23.86C169.071 24.4384 168.261 24.806 167.567 24.9592C166.872 25.1124 166.055 25.189 165.109 25.189C162.996 25.189 161.33 24.5743 160.109 23.343C158.887 22.1136 158.276 20.4035 158.276 18.2147C158.276 16.0259 158.944 14.3197 160.281 12.9907C161.618 11.6617 163.441 10.9972 165.746 10.9972C167.34 10.9972 168.722 11.4434 169.898 12.3377L169.896 12.3415Z" fill="#054020"/>
<path d="M12.7863 21.2178H18.9889C18.9697 23.7456 16.892 25.7908 14.3278 25.7908H9.324C6.74836 25.7908 4.66103 23.7283 4.66103 21.1814V14.4963C4.66103 11.9513 6.74836 9.88692 9.324 9.88692H10.1915V5.27758H4.66295C2.08731 5.27758 0 7.34001 0 9.88692V25.7888C0 28.3338 2.08731 30.3982 4.66295 30.3982H18.9908C21.5664 30.3982 23.6537 28.3358 23.6537 25.7888V16.6066H12.7863V21.2159V21.2178Z" fill="#054020"/>
<path d="M31.7777 0H17.4499C14.8743 0 12.7869 2.06243 12.7869 4.60934V13.7916H23.6544V9.18229H17.4518C17.471 6.65452 19.5487 4.60934 22.1128 4.60934H27.1167C29.6923 4.60934 31.7796 6.67176 31.7796 9.21867V15.9038C31.7796 18.4488 29.6923 20.5132 27.1167 20.5132H26.2492V25.1225H31.7796C34.3553 25.1225 36.4426 23.0601 36.4426 20.5132V4.61125C36.4426 2.06625 34.3553 0.00191684 31.7796 0.00191684L31.7777 0Z" fill="#054020"/>
</svg>