<svg width="175" height="40" viewBox="0 0 175 40" fill="none" xmlns="http://www.w3.org/2000/svg">
<path d="M13.3413 11.9165L20.8426 20.3287V22.7399H18.1904L12.8323 30.643H8.01002L15.3506 19.6322L8.46546 11.9165H13.3413Z" fill="#0087FD"/>
<path d="M7.5013 11.9165L9.53674e-07 20.3287V22.7399H2.65225L8.01032 30.643H12.8326L5.49203 19.6322L12.3771 11.9165H7.5013Z" fill="#0087FD"/>
<path d="M29.9815 21.6871C29.9815 19.7891 30.354 18.1305 31.099 16.7114C31.8441 15.2746 32.9084 14.1659 34.292 13.3854C35.6933 12.6049 37.3342 12.2147 39.2145 12.2147C40.6868 12.2147 42.0083 12.4985 43.1791 13.0661C44.3498 13.6338 45.29 14.432 45.9995 15.4608C46.7268 16.4897 47.1703 17.6693 47.3299 18.9997H43.3919C43.1436 17.9531 42.6469 17.1283 41.9019 16.5252C41.1569 15.9043 40.2256 15.5939 39.108 15.5939C38.0792 15.5939 37.1834 15.8511 36.4206 16.3655C35.6579 16.8799 35.0725 17.5983 34.6645 18.5207C34.2565 19.4432 34.0525 20.4986 34.0525 21.6871C34.0525 23.5142 34.496 24.9865 35.3829 26.104C36.2876 27.2216 37.5293 27.7803 39.108 27.7803C40.261 27.7803 41.281 27.4699 42.168 26.849C43.0549 26.2105 43.587 25.2792 43.7644 24.0552V23.8157H39.1346V20.6494H47.4629V30.9999H44.6957L44.27 28.685C43.7201 29.4123 42.9839 30.0065 42.0615 30.4677C41.1391 30.9289 40.0659 31.1595 38.842 31.1595C37.0858 31.1595 35.5337 30.7693 34.1856 29.9888C32.8552 29.2083 31.8175 28.0996 31.0724 26.6628C30.3451 25.226 29.9815 23.5674 29.9815 21.6871ZM49.3204 12.3743H53.0721V30.9999H49.3204V12.3743ZM68.1067 27.8335V30.9999H66.191C64.4703 30.9999 63.6277 30.2549 63.6632 28.7648C63.1665 29.5453 62.5545 30.1396 61.8272 30.5476C61.1 30.9555 60.2219 31.1595 59.1931 31.1595C57.6675 31.1595 56.4347 30.8136 55.4946 30.1218C54.5721 29.4123 54.1109 28.4189 54.1109 27.1417C54.1109 25.6872 54.6431 24.5696 55.7074 23.7891C56.7895 22.9909 58.3505 22.5918 60.3904 22.5918H63.1044V21.9266C63.1044 21.3057 62.8738 20.8179 62.4126 20.4631C61.9514 20.0906 61.3306 19.9044 60.5501 19.9044C59.8583 19.9044 59.2906 20.0551 58.8472 20.3567C58.4037 20.6583 58.1376 21.0662 58.0489 21.5807H54.4302C54.5544 20.1793 55.1753 19.0973 56.2928 18.3345C57.4103 17.554 58.8915 17.1637 60.7363 17.1637C62.6698 17.1637 64.1599 17.5895 65.2065 18.4409C66.2708 19.2924 66.8029 20.5252 66.8029 22.1394V26.9555C66.8029 27.2925 66.8739 27.5231 67.0158 27.6473C67.1577 27.7715 67.3794 27.8335 67.681 27.8335H68.1067ZM63.1044 25.0929H60.3638C59.5833 25.0929 58.9713 25.2526 58.5279 25.5719C58.1021 25.8734 57.8893 26.308 57.8893 26.8757C57.8893 27.3546 58.0667 27.736 58.4214 28.0198C58.7939 28.3036 59.2906 28.4455 59.9115 28.4455C60.8871 28.4455 61.6587 28.1706 62.2264 27.6207C62.794 27.053 63.0867 26.2991 63.1044 25.359V25.0929ZM71.5746 26.4499C71.6278 27.053 71.9205 27.5409 72.4526 27.9134C72.9848 28.2859 73.6677 28.4721 74.5015 28.4721C75.2997 28.4721 75.9294 28.348 76.3906 28.0996C76.8518 27.8335 77.0824 27.461 77.0824 26.9821C77.0824 26.6273 76.976 26.3612 76.7631 26.1838C76.5503 26.0065 76.2487 25.8823 75.8585 25.8113C75.4682 25.7226 74.8296 25.6251 73.9427 25.5186C72.7365 25.359 71.7342 25.155 70.936 24.9067C70.1377 24.6583 69.4992 24.2681 69.0202 23.7359C68.5413 23.2038 68.3018 22.4942 68.3018 21.6073C68.3018 20.7203 68.5413 19.9398 69.0202 19.2658C69.5169 18.574 70.2087 18.0418 71.0956 17.6693C71.9826 17.2968 73.0025 17.1105 74.1556 17.1105C76.0181 17.1283 77.517 17.5274 78.6523 18.3079C79.8053 19.0884 80.4262 20.1704 80.5149 21.5541H76.9494C76.8962 21.0396 76.6212 20.6228 76.1245 20.3035C75.6456 19.9664 75.0247 19.7979 74.262 19.7979C73.5524 19.7979 72.9759 19.931 72.5325 20.1971C72.1067 20.4631 71.8939 20.8179 71.8939 21.2614C71.8939 21.5807 72.0092 21.8201 72.2398 21.9798C72.4704 22.1394 72.7719 22.2547 73.1445 22.3257C73.517 22.3966 74.1378 22.4765 75.007 22.5652C76.8518 22.778 78.2621 23.1771 79.2377 23.7625C80.231 24.3302 80.7277 25.3147 80.7277 26.716C80.7277 27.6029 80.4616 28.3834 79.9295 29.0575C79.4151 29.7316 78.6878 30.2549 77.7476 30.6274C76.8252 30.9821 75.752 31.1595 74.5281 31.1595C72.63 31.1595 71.0868 30.7427 69.8983 29.909C68.7098 29.0575 68.0801 27.9045 68.0091 26.4499H71.5746ZM84.6406 26.4499C84.6938 27.053 84.9865 27.5409 85.5187 27.9134C86.0509 28.2859 86.7338 28.4721 87.5675 28.4721C88.3657 28.4721 88.9955 28.348 89.4567 28.0996C89.9179 27.8335 90.1485 27.461 90.1485 26.9821C90.1485 26.6273 90.042 26.3612 89.8292 26.1838C89.6163 26.0065 89.3148 25.8823 88.9245 25.8113C88.5343 25.7226 87.8957 25.6251 87.0087 25.5186C85.8025 25.359 84.8003 25.155 84.002 24.9067C83.2038 24.6583 82.5652 24.2681 82.0863 23.7359C81.6073 23.2038 81.3678 22.4942 81.3678 21.6073C81.3678 20.7203 81.6073 19.9398 82.0863 19.2658C82.5829 18.574 83.2748 18.0418 84.1617 17.6693C85.0486 17.2968 86.0686 17.1105 87.2216 17.1105C89.0842 17.1283 90.5831 17.5274 91.7183 18.3079C92.8714 19.0884 93.4922 20.1704 93.5809 21.5541H90.0154C89.9622 21.0396 89.6873 20.6228 89.1906 20.3035C88.7116 19.9664 88.0908 19.7979 87.328 19.7979C86.6185 19.7979 86.042 19.931 85.5985 20.1971C85.1728 20.4631 84.9599 20.8179 84.9599 21.2614C84.9599 21.5807 85.0752 21.8201 85.3058 21.9798C85.5364 22.1394 85.838 22.2547 86.2105 22.3257C86.583 22.3966 87.2039 22.4765 88.0731 22.5652C89.9179 22.778 91.3281 23.1771 92.3037 23.7625C93.2971 24.3302 93.7938 25.3147 93.7938 26.716C93.7938 27.6029 93.5277 28.3834 92.9955 29.0575C92.4811 29.7316 91.7538 30.2549 90.8137 30.6274C89.8913 30.9821 88.8181 31.1595 87.5941 31.1595C85.6961 31.1595 84.1528 30.7427 82.9643 29.909C81.7758 29.0575 81.1461 27.9045 81.0752 26.4499H84.6406ZM95.7847 20.4897H93.523V17.3234H95.7847V13.4918H99.5364V17.3234H102.65V20.4897H99.5364V26.4765C99.5364 26.9555 99.634 27.3014 99.8291 27.5142C100.042 27.7271 100.388 27.8335 100.867 27.8335H102.809V30.9999H99.696C97.0885 30.9999 95.7847 29.6961 95.7847 27.0885V20.4897ZM111.676 17.3234V20.7292H110.186C109.121 20.7292 108.341 21.0485 107.844 21.6871C107.348 22.3257 107.099 23.1949 107.099 24.2947V30.9999H103.347V17.3234H106.753L107.099 19.3722C107.507 18.6981 108.013 18.1926 108.616 17.8555C109.219 17.5008 110.026 17.3234 111.037 17.3234H111.676ZM118.545 31.1595C117.108 31.1595 115.84 30.8757 114.74 30.3081C113.658 29.7227 112.815 28.8979 112.212 27.8335C111.627 26.7692 111.334 25.5453 111.334 24.1616C111.334 22.778 111.627 21.5541 112.212 20.4897C112.815 19.4254 113.658 18.6094 114.74 18.0418C115.84 17.4564 117.108 17.1637 118.545 17.1637C119.982 17.1637 121.241 17.4564 122.323 18.0418C123.423 18.6094 124.266 19.4254 124.851 20.4897C125.454 21.5541 125.756 22.778 125.756 24.1616C125.756 25.563 125.454 26.7958 124.851 27.8601C124.266 28.9067 123.423 29.7227 122.323 30.3081C121.241 30.8757 119.982 31.1595 118.545 31.1595ZM118.545 28.0996C119.591 28.0996 120.416 27.736 121.019 27.0087C121.64 26.2814 121.951 25.3324 121.951 24.1616C121.951 22.9909 121.64 22.0419 121.019 21.3146C120.416 20.5873 119.591 20.2237 118.545 20.2237C117.516 20.2237 116.691 20.5873 116.07 21.3146C115.467 22.0419 115.166 22.9909 115.166 24.1616C115.166 25.3324 115.467 26.2814 116.07 27.0087C116.691 27.736 117.516 28.0996 118.545 28.0996ZM134.627 17.1637C136.223 17.1637 137.536 17.6604 138.565 18.6538C139.593 19.6472 140.108 21.288 140.108 23.5763V30.9999H136.356V23.7891C136.356 21.4299 135.434 20.2503 133.589 20.2503C132.613 20.2503 131.859 20.5784 131.327 21.2348C130.795 21.8911 130.529 22.8135 130.529 24.002V30.9999H126.777V17.3234H130.05L130.396 19.0263C130.875 18.4409 131.451 17.9886 132.125 17.6693C132.799 17.3323 133.633 17.1637 134.627 17.1637ZM143.317 11.6293C143.938 11.6293 144.453 11.8333 144.861 12.2413C145.269 12.6315 145.473 13.1282 145.473 13.7313C145.473 14.3344 145.269 14.84 144.861 15.248C144.453 15.656 143.938 15.86 143.317 15.86C142.697 15.86 142.173 15.656 141.748 15.248C141.34 14.84 141.136 14.3344 141.136 13.7313C141.136 13.1282 141.34 12.6315 141.748 12.2413C142.173 11.8333 142.697 11.6293 143.317 11.6293ZM141.428 17.3234H145.18V30.9999H141.428V17.3234ZM159.895 25.8113C159.647 27.4788 158.937 28.7914 157.767 29.7493C156.614 30.6895 155.115 31.1595 153.27 31.1595C151.851 31.1595 150.609 30.8757 149.545 30.3081C148.481 29.7227 147.656 28.8979 147.07 27.8335C146.503 26.7692 146.219 25.5453 146.219 24.1616C146.219 22.7603 146.503 21.5363 147.07 20.4897C147.656 19.4254 148.481 18.6094 149.545 18.0418C150.627 17.4564 151.877 17.1637 153.297 17.1637C155.124 17.1637 156.614 17.6338 157.767 18.574C158.92 19.4964 159.629 20.7824 159.895 22.4321H156.011C155.851 21.7581 155.532 21.2259 155.053 20.8356C154.574 20.4277 153.979 20.2237 153.27 20.2237C152.294 20.2237 151.514 20.5873 150.928 21.3146C150.343 22.0419 150.05 22.9909 150.05 24.1616C150.05 25.3324 150.343 26.2814 150.928 27.0087C151.514 27.736 152.294 28.0996 153.27 28.0996C153.997 28.0996 154.6 27.8956 155.079 27.4876C155.576 27.0796 155.895 26.5209 156.037 25.8113H159.895ZM163.942 26.4499C163.996 27.053 164.288 27.5409 164.82 27.9134C165.353 28.2859 166.035 28.4721 166.869 28.4721C167.667 28.4721 168.297 28.348 168.758 28.0996C169.22 27.8335 169.45 27.461 169.45 26.9821C169.45 26.6273 169.344 26.3612 169.131 26.1838C168.918 26.0065 168.616 25.8823 168.226 25.8113C167.836 25.7226 167.197 25.6251 166.31 25.5186C165.104 25.359 164.102 25.155 163.304 24.9067C162.505 24.6583 161.867 24.2681 161.388 23.7359C160.909 23.2038 160.67 22.4942 160.67 21.6073C160.67 20.7203 160.909 19.9398 161.388 19.2658C161.885 18.574 162.576 18.0418 163.463 17.6693C164.35 17.2968 165.37 17.1105 166.523 17.1105C168.386 17.1283 169.885 17.5274 171.02 18.3079C172.173 19.0884 172.794 20.1704 172.883 21.5541H169.317C169.264 21.0396 168.989 20.6228 168.492 20.3035C168.013 19.9664 167.392 19.7979 166.63 19.7979C165.92 19.7979 165.344 19.931 164.9 20.1971C164.474 20.4631 164.262 20.8179 164.262 21.2614C164.262 21.5807 164.377 21.8201 164.608 21.9798C164.838 22.1394 165.14 22.2547 165.512 22.3257C165.885 22.3966 166.506 22.4765 167.375 22.5652C169.22 22.778 170.63 23.1771 171.605 23.7625C172.599 24.3302 173.095 25.3147 173.095 26.716C173.095 27.6029 172.829 28.3834 172.297 29.0575C171.783 29.7316 171.055 30.2549 170.115 30.6274C169.193 30.9821 168.12 31.1595 166.896 31.1595C164.998 31.1595 163.454 30.7427 162.266 29.909C161.078 29.0575 160.448 27.9045 160.377 26.4499H163.942Z" fill="#001C35"/>
</svg>
